<svg xmlns="http://www.w3.org/2000/svg" viewBox="0 0 248.04 251.73"><defs><style>.cls-1{fill:#eccd79;}</style></defs><title>style04</title><g id="Layer_2" data-name="Layer 2"><g id="style_No._4" data-name="style No. 4"><path class="cls-1" d="M215.57,36.15V0H0V215.57H32.46v36.16H248V36.15ZM9.58,206V9.58H206V36.15H32.46V206ZM206,45.73V206H42V45.73Zm32.47,196.41H42V215.57H215.57V45.73h22.89Z"/><path d="M96.14,103.76a20.86,20.86,0,0,0-2.55.28,15,15,0,0,0-2.58.6,2.67,2.67,0,0,0-1.69,1.47,5.62,5.62,0,0,0-.44,2.23v30.82a15.19,15.19,0,0,1-1,5.13,14.82,14.82,0,0,1-2.84,4.84A15.33,15.33,0,0,1,79.92,153a16,16,0,0,1-6.83,1.4,13.91,13.91,0,0,1-9.7-3.36,11.54,11.54,0,0,1-3.72-9A7.78,7.78,0,0,1,61,137.6a4.2,4.2,0,0,1,3.73-1.92,5,5,0,0,1,3.54,1.23,4.2,4.2,0,0,1,1.34,3.24,6.21,6.21,0,0,1-.48,2.35A13,13,0,0,1,68,144.58c-.37.57-.78,1.23-1.25,2a10.24,10.24,0,0,0-1,2.06,6.73,6.73,0,0,0,2.4,2.12,9,9,0,0,0,4.38.92A7.28,7.28,0,0,0,77,150.43a7.38,7.38,0,0,0,2.55-3.28,17.58,17.58,0,0,0,1.15-4.69,49,49,0,0,0,.35-6.23V108.71a4.9,4.9,0,0,0-.42-2.15A3.66,3.66,0,0,0,78.84,105a10,10,0,0,0-2.84-.89,25.82,25.82,0,0,0-2.8-.39v-2.6H96.14Z"/><path d="M150.19,153.16H128.58v-2.6a22.06,22.06,0,0,0,4.74-.74q1.89-.54,1.89-1.35a7,7,0,0,0-.07-.81,4.45,4.45,0,0,0-.22-.84l-4.31-11.65H112.35q-1,2.57-1.67,4.47c-.42,1.27-.81,2.44-1.15,3.52a23.85,23.85,0,0,0-.66,2.56,9.62,9.62,0,0,0-.19,1.61q0,1.47,2.31,2.28a19,19,0,0,0,5.21.95v2.6H96.61v-2.6a15.94,15.94,0,0,0,2.39-.42,8,8,0,0,0,2.34-.94,9.07,9.07,0,0,0,2.27-2.07,13.13,13.13,0,0,0,1.58-3q3.91-9.78,8.65-22t8.43-21.73h2.93l17.33,44.85a8.87,8.87,0,0,0,1.25,2.31,8.37,8.37,0,0,0,1.94,1.72,8.07,8.07,0,0,0,2.2.86,11.11,11.11,0,0,0,2.27.39ZM129.27,131.9l-7.88-20.18-7.76,20.18Z"/><path d="M184.42,129.3a12.16,12.16,0,0,1,2.44,4,15,15,0,0,1,.78,5.07,14.44,14.44,0,0,1-5.09,11.36,18.48,18.48,0,0,1-12.64,4.47,23.49,23.49,0,0,1-7-1.08,26.76,26.76,0,0,1-6-2.62l-1.57,2.68h-2.93l-.52-17.81h3a38.83,38.83,0,0,0,2.15,6,20.41,20.41,0,0,0,3.24,5,14.59,14.59,0,0,0,4.45,3.44,12.94,12.94,0,0,0,5.92,1.28,13.4,13.4,0,0,0,4.42-.66,7.81,7.81,0,0,0,3.06-1.87,7.6,7.6,0,0,0,1.74-2.84,11.4,11.4,0,0,0,.56-3.76,10.48,10.48,0,0,0-1.75-5.82,10.84,10.84,0,0,0-5.25-4.09q-2.37-.94-5.46-2.1c-2.05-.76-3.82-1.49-5.31-2.17a17.28,17.28,0,0,1-6.83-5.18,13.45,13.45,0,0,1-2.44-8.38,12.77,12.77,0,0,1,1.21-5.53,14.38,14.38,0,0,1,3.44-4.58,15.62,15.62,0,0,1,5-3,17.18,17.18,0,0,1,6-1.08,17.55,17.55,0,0,1,6.43,1.1,30.57,30.57,0,0,1,5.19,2.56l1.5-2.49h2.93l.29,17.26h-3q-.81-3-1.82-5.68a19.7,19.7,0,0,0-2.62-4.91,11.9,11.9,0,0,0-3.85-3.39,11.33,11.33,0,0,0-5.57-1.27,8.48,8.48,0,0,0-5.93,2.24,7.1,7.1,0,0,0-2.46,5.46,9.42,9.42,0,0,0,1.58,5.59,11.43,11.43,0,0,0,4.58,3.64,53.9,53.9,0,0,0,5.26,2.22q2.58.93,5,2a35,35,0,0,1,4.23,2.16A16,16,0,0,1,184.42,129.3Z"/></g></g></svg>